<mxfile host="app.diagrams.net" agent="Mozilla/5.0 (X11; Linux x86_64) AppleWebKit/537.36 (KHTML, like Gecko) Chrome/134.0.0.0 Safari/537.36" version="26.1.3">
  <diagram name="Page-1" id="wFjEFWQTL-SAOnPvtzEp">
    <mxGraphModel dx="2899" dy="1090" grid="1" gridSize="10" guides="1" tooltips="1" connect="1" arrows="1" fold="1" page="1" pageScale="1" pageWidth="850" pageHeight="1100" math="0" shadow="0">
      <root>
        <mxCell id="0" />
        <mxCell id="1" parent="0" />
        <mxCell id="QMT1Fe_UzR-cvhtliTTo-3" value="" style="edgeStyle=orthogonalEdgeStyle;rounded=0;orthogonalLoop=1;jettySize=auto;html=1;entryX=0.5;entryY=0;entryDx=0;entryDy=0;" edge="1" parent="1" source="QMT1Fe_UzR-cvhtliTTo-1" target="QMT1Fe_UzR-cvhtliTTo-2">
          <mxGeometry relative="1" as="geometry">
            <mxPoint x="400" y="140" as="targetPoint" />
          </mxGeometry>
        </mxCell>
        <mxCell id="QMT1Fe_UzR-cvhtliTTo-1" value="Start" style="ellipse;whiteSpace=wrap;html=1;aspect=fixed;" vertex="1" parent="1">
          <mxGeometry x="360" y="20" width="80" height="80" as="geometry" />
        </mxCell>
        <mxCell id="QMT1Fe_UzR-cvhtliTTo-6" value="" style="edgeStyle=orthogonalEdgeStyle;rounded=0;orthogonalLoop=1;jettySize=auto;html=1;exitX=0.5;exitY=1;exitDx=0;exitDy=0;" edge="1" parent="1" source="QMT1Fe_UzR-cvhtliTTo-2" target="QMT1Fe_UzR-cvhtliTTo-5">
          <mxGeometry relative="1" as="geometry">
            <mxPoint x="400" y="220" as="sourcePoint" />
          </mxGeometry>
        </mxCell>
        <mxCell id="QMT1Fe_UzR-cvhtliTTo-2" value="NFT Minting Process" style="whiteSpace=wrap;html=1;" vertex="1" parent="1">
          <mxGeometry x="340" y="150" width="120" height="60" as="geometry" />
        </mxCell>
        <mxCell id="QMT1Fe_UzR-cvhtliTTo-8" value="" style="edgeStyle=orthogonalEdgeStyle;rounded=0;orthogonalLoop=1;jettySize=auto;html=1;" edge="1" parent="1" source="QMT1Fe_UzR-cvhtliTTo-5" target="QMT1Fe_UzR-cvhtliTTo-7">
          <mxGeometry relative="1" as="geometry" />
        </mxCell>
        <mxCell id="QMT1Fe_UzR-cvhtliTTo-11" value="No" style="edgeLabel;html=1;align=center;verticalAlign=middle;resizable=0;points=[];" vertex="1" connectable="0" parent="QMT1Fe_UzR-cvhtliTTo-8">
          <mxGeometry x="-0.2" y="4" relative="1" as="geometry">
            <mxPoint as="offset" />
          </mxGeometry>
        </mxCell>
        <mxCell id="QMT1Fe_UzR-cvhtliTTo-13" value="" style="edgeStyle=orthogonalEdgeStyle;rounded=0;orthogonalLoop=1;jettySize=auto;html=1;" edge="1" parent="1" source="QMT1Fe_UzR-cvhtliTTo-5" target="QMT1Fe_UzR-cvhtliTTo-12">
          <mxGeometry relative="1" as="geometry" />
        </mxCell>
        <mxCell id="QMT1Fe_UzR-cvhtliTTo-5" value="User Registered?" style="rhombus;whiteSpace=wrap;html=1;" vertex="1" parent="1">
          <mxGeometry x="360" y="260" width="80" height="80" as="geometry" />
        </mxCell>
        <mxCell id="QMT1Fe_UzR-cvhtliTTo-10" value="" style="edgeStyle=orthogonalEdgeStyle;rounded=0;orthogonalLoop=1;jettySize=auto;html=1;" edge="1" parent="1" source="QMT1Fe_UzR-cvhtliTTo-7" target="QMT1Fe_UzR-cvhtliTTo-9">
          <mxGeometry relative="1" as="geometry" />
        </mxCell>
        <mxCell id="QMT1Fe_UzR-cvhtliTTo-7" value="Error: User not registered" style="whiteSpace=wrap;html=1;" vertex="1" parent="1">
          <mxGeometry x="130" y="270" width="120" height="60" as="geometry" />
        </mxCell>
        <mxCell id="QMT1Fe_UzR-cvhtliTTo-9" value="End" style="ellipse;whiteSpace=wrap;html=1;" vertex="1" parent="1">
          <mxGeometry x="-10" y="260" width="80" height="80" as="geometry" />
        </mxCell>
        <mxCell id="QMT1Fe_UzR-cvhtliTTo-15" value="" style="edgeStyle=orthogonalEdgeStyle;rounded=0;orthogonalLoop=1;jettySize=auto;html=1;" edge="1" parent="1" source="QMT1Fe_UzR-cvhtliTTo-12" target="QMT1Fe_UzR-cvhtliTTo-14">
          <mxGeometry relative="1" as="geometry" />
        </mxCell>
        <mxCell id="QMT1Fe_UzR-cvhtliTTo-12" value="Assign a new NFT ID" style="whiteSpace=wrap;html=1;" vertex="1" parent="1">
          <mxGeometry x="340" y="390" width="120" height="60" as="geometry" />
        </mxCell>
        <mxCell id="QMT1Fe_UzR-cvhtliTTo-17" value="" style="edgeStyle=orthogonalEdgeStyle;rounded=0;orthogonalLoop=1;jettySize=auto;html=1;" edge="1" parent="1" source="QMT1Fe_UzR-cvhtliTTo-14" target="QMT1Fe_UzR-cvhtliTTo-16">
          <mxGeometry relative="1" as="geometry" />
        </mxCell>
        <mxCell id="QMT1Fe_UzR-cvhtliTTo-14" value="Mint NFT to user&#39;s address" style="whiteSpace=wrap;html=1;" vertex="1" parent="1">
          <mxGeometry x="340" y="500" width="120" height="60" as="geometry" />
        </mxCell>
        <mxCell id="QMT1Fe_UzR-cvhtliTTo-19" value="" style="edgeStyle=orthogonalEdgeStyle;rounded=0;orthogonalLoop=1;jettySize=auto;html=1;" edge="1" parent="1" source="QMT1Fe_UzR-cvhtliTTo-16" target="QMT1Fe_UzR-cvhtliTTo-18">
          <mxGeometry relative="1" as="geometry" />
        </mxCell>
        <mxCell id="QMT1Fe_UzR-cvhtliTTo-16" value="Store NFT Metadata" style="whiteSpace=wrap;html=1;" vertex="1" parent="1">
          <mxGeometry x="340" y="610" width="120" height="60" as="geometry" />
        </mxCell>
        <mxCell id="QMT1Fe_UzR-cvhtliTTo-21" value="" style="edgeStyle=orthogonalEdgeStyle;rounded=0;orthogonalLoop=1;jettySize=auto;html=1;" edge="1" parent="1" source="QMT1Fe_UzR-cvhtliTTo-18" target="QMT1Fe_UzR-cvhtliTTo-20">
          <mxGeometry relative="1" as="geometry" />
        </mxCell>
        <mxCell id="QMT1Fe_UzR-cvhtliTTo-18" value="Update user&#39;s inventory" style="whiteSpace=wrap;html=1;" vertex="1" parent="1">
          <mxGeometry x="340" y="720" width="120" height="60" as="geometry" />
        </mxCell>
        <mxCell id="QMT1Fe_UzR-cvhtliTTo-23" value="" style="edgeStyle=orthogonalEdgeStyle;rounded=0;orthogonalLoop=1;jettySize=auto;html=1;" edge="1" parent="1" source="QMT1Fe_UzR-cvhtliTTo-20" target="QMT1Fe_UzR-cvhtliTTo-22">
          <mxGeometry relative="1" as="geometry" />
        </mxCell>
        <mxCell id="QMT1Fe_UzR-cvhtliTTo-20" value="Emit NFTCreated Event" style="whiteSpace=wrap;html=1;" vertex="1" parent="1">
          <mxGeometry x="340" y="830" width="120" height="60" as="geometry" />
        </mxCell>
        <mxCell id="QMT1Fe_UzR-cvhtliTTo-22" value="End" style="ellipse;whiteSpace=wrap;html=1;" vertex="1" parent="1">
          <mxGeometry x="360" y="940" width="80" height="80" as="geometry" />
        </mxCell>
      </root>
    </mxGraphModel>
  </diagram>
</mxfile>
